<svg viewBox="0 0 2230 1648" fill="none" xmlns="http://www.w3.org/2000/svg">
    <path
        d="M790.758 853H296.956C277.023 853 258.341 862.714 246.893 879.036L11.0859 1215.22C-3.69531 1236.3 -3.69531 1264.37 11.0859 1285.45L246.893 1621.63C258.341 1637.95 277.023 1647.67 296.956 1647.67H790.758C810.69 1647.67 829.372 1637.95 840.82 1621.63L1076.63 1285.45C1091.41 1264.37 1091.41 1236.3 1076.63 1215.22L840.82 879.036C829.372 862.714 810.69 853 790.758 853ZM790.758 873C804.159 873 816.753 879.547 824.445 890.521L1060.25 1226.7C1070.17 1240.84 1070.17 1259.83 1060.25 1273.96L824.445 1610.15C816.753 1621.12 804.159 1627.67 790.758 1627.67H296.956C283.56 1627.67 270.966 1621.12 263.268 1610.15L27.4609 1273.96C17.5495 1259.83 17.5495 1240.84 27.4609 1226.7L263.268 890.521C270.966 879.547 283.56 873 296.956 873H790.758Z"
        fill="#662D91" />
    <path
        d="M677.455 1087.37C669.184 1095.61 669.169 1109 677.413 1117.27C677.429 1117.28 677.439 1117.3 677.455 1117.31L810.523 1250.33L677.455 1383.36C669.184 1391.63 669.184 1405.03 677.455 1413.3C685.721 1421.56 699.122 1421.56 707.393 1413.3L855.387 1265.3C863.653 1257.06 863.669 1243.67 855.424 1235.4C855.408 1235.39 855.398 1235.38 855.387 1235.36L707.393 1087.37C699.143 1079.1 685.757 1079.08 677.492 1087.33C677.476 1087.34 677.466 1087.36 677.455 1087.37ZM411.398 1087.37C419.669 1095.61 419.684 1109 411.439 1117.27C411.424 1117.28 411.413 1117.3 411.398 1117.31L278.33 1250.33L411.398 1383.36C419.669 1391.63 419.669 1405.03 411.398 1413.3C403.132 1421.56 389.731 1421.56 381.46 1413.3L233.466 1265.3C225.2 1257.06 225.184 1243.67 233.429 1235.4C233.445 1235.39 233.455 1235.38 233.466 1235.36L381.46 1087.37C389.71 1079.1 403.096 1079.08 411.361 1087.33C411.377 1087.34 411.387 1087.36 411.398 1087.37ZM649.205 981.703C652.637 970.536 646.372 958.703 635.21 955.271C624.049 951.839 612.216 958.104 608.783 969.271L439.643 1518.96C436.216 1530.13 442.481 1541.96 453.643 1545.39C464.804 1548.83 476.637 1542.56 480.07 1531.4L649.205 981.703Z"
        fill="#662D91" />
    <path
        d="M1860.46 330.333H1246.8C1222.03 330.333 1198.81 342.406 1184.59 362.687L891.541 780.474C873.171 806.667 873.171 841.562 891.541 867.75L1184.59 1285.54C1198.81 1305.82 1222.03 1317.89 1246.8 1317.89H1860.46C1885.23 1317.89 1908.45 1305.82 1922.68 1285.54L2215.72 867.75C2234.09 841.562 2234.09 806.667 2215.72 780.474L1922.68 362.687C1908.45 342.406 1885.23 330.333 1860.46 330.333ZM1860.46 350.333C1878.7 350.333 1895.83 359.245 1906.3 374.172L2199.35 791.958C2212.84 811.193 2212.84 837.036 2199.35 856.266L1906.3 1274.05C1895.83 1288.98 1878.7 1297.89 1860.46 1297.89H1246.8C1228.57 1297.89 1211.43 1288.98 1200.96 1274.05L907.916 856.266C894.426 837.036 894.426 811.193 907.916 791.958L1200.96 374.172C1211.43 359.245 1228.57 350.333 1246.8 350.333H1860.46Z"
        fill="#662D91" />
    <path
        d="M1930.55 1030.25H1203.25C1196.01 1030.25 1190.13 1024.37 1190.13 1017.12V572.875C1190.13 565.63 1196.01 559.755 1203.25 559.755H1930.55C1937.79 559.755 1943.67 565.63 1943.67 572.875V1017.12C1943.67 1024.37 1937.79 1030.25 1930.55 1030.25Z"
        fill="white" />
    <path
        d="M1930.55 1030.25H1203.25C1196.01 1030.25 1190.13 1024.37 1190.13 1017.12V572.875C1190.13 565.63 1196.01 559.755 1203.25 559.755H1930.55C1937.79 559.755 1943.67 565.63 1943.67 572.875V1017.12C1943.67 1024.37 1937.79 1030.25 1930.55 1030.25Z"
        stroke="#5B3694" stroke-width="9.33333" stroke-miterlimit="10" />
    <path
        d="M1930.34 1057.43H1203.45C1196.09 1057.43 1190.13 1051.46 1190.13 1044.11V1010.57H1943.67V1044.11C1943.67 1051.46 1937.7 1057.43 1930.34 1057.43Z"
        fill="#5B318C" />
    <path
        d="M1930.34 1057.43H1203.45C1196.09 1057.43 1190.13 1051.46 1190.13 1044.11V1010.57H1943.67V1044.11C1943.67 1051.46 1937.7 1057.43 1930.34 1057.43Z"
        stroke="#5B318C" stroke-width="9.33333" stroke-miterlimit="10" />
    <path d="M1627.82 1114.6H1505.97V1080.86H1627.82V1114.6Z" fill="#5B318C" stroke="#5B318C" stroke-width="9.33333"
        stroke-miterlimit="10" />
    <path d="M1405.69 1123.04H1727.17" stroke="#5B318C" stroke-width="9.33333" stroke-miterlimit="10" />
    <path
        d="M1906.18 621.615H1225.74C1220.57 621.615 1216.37 617.417 1216.37 612.24V589.745C1216.37 584.573 1220.57 580.375 1225.74 580.375H1906.18C1911.35 580.375 1915.55 584.573 1915.55 589.745V612.24C1915.55 617.417 1911.35 621.615 1906.18 621.615ZM1547.77 803.438H1226.12C1220.73 803.438 1216.37 799.073 1216.37 793.688V650.109C1216.37 644.724 1220.73 640.359 1226.12 640.359H1547.77C1553.16 640.359 1557.53 644.724 1557.53 650.109V793.688C1557.53 799.073 1553.16 803.438 1547.77 803.438ZM1907.67 803.438H1586.02C1580.63 803.438 1576.27 799.073 1576.27 793.688V650.109C1576.27 644.724 1580.63 640.359 1586.02 640.359H1907.67C1913.06 640.359 1917.42 644.724 1917.42 650.109V793.688C1917.42 799.073 1913.06 803.438 1907.67 803.438ZM1667.76 985.26H1462.28C1457.94 985.26 1454.43 981.745 1454.43 977.411V830.036C1454.43 825.698 1457.94 822.182 1462.28 822.182H1667.76C1672.1 822.182 1675.61 825.698 1675.61 830.036V977.411C1675.61 981.745 1672.1 985.26 1667.76 985.26ZM1429.71 985.26H1224.22C1219.88 985.26 1216.37 981.745 1216.37 977.411V830.036C1216.37 825.698 1219.88 822.182 1224.22 822.182H1429.71C1434.04 822.182 1437.56 825.698 1437.56 830.036V977.411C1437.56 981.745 1434.04 985.26 1429.71 985.26ZM1907.7 985.26H1702.21C1697.87 985.26 1694.36 981.745 1694.36 977.411V830.036C1694.36 825.698 1697.87 822.182 1702.21 822.182H1907.7C1912.04 822.182 1915.55 825.698 1915.55 830.036V977.411C1915.55 981.745 1912.04 985.26 1907.7 985.26Z"
        fill="#CACACA" />
    <path d="M1185 575C1185 563.954 1193.95 555 1205 555H1346V833C1346 844.046 1337.05 853 1326 853H1185V575Z"
        fill="white" />
    <path
        d="M1320.41 841.865H1140.45C1133.21 841.865 1127.33 835.99 1127.33 828.745V519.453C1127.33 512.208 1133.21 506.333 1140.45 506.333H1320.41C1327.65 506.333 1333.53 512.208 1333.53 519.453V828.745C1333.53 835.99 1327.65 841.865 1320.41 841.865Z"
        fill="white" />
    <path
        d="M1320.41 841.865H1140.45C1133.21 841.865 1127.33 835.99 1127.33 828.745V519.453C1127.33 512.208 1133.21 506.333 1140.45 506.333H1320.41C1327.65 506.333 1333.53 512.208 1333.53 519.453V828.745C1333.53 835.99 1327.65 841.865 1320.41 841.865Z"
        stroke="#5B3694" stroke-width="6.66667" stroke-miterlimit="10" />
    <path
        d="M1318.03 559.755H1144.7C1142.87 559.755 1141.39 558.276 1141.39 556.448V527.453C1141.39 525.625 1142.87 524.141 1144.7 524.141H1318.03C1319.86 524.141 1321.34 525.625 1321.34 527.453V556.448C1321.34 558.276 1319.86 559.755 1318.03 559.755ZM1316.42 649.729H1146.31C1143.59 649.729 1141.39 647.526 1141.39 644.807V575.922C1141.39 573.208 1143.59 571 1146.31 571H1316.42C1319.14 571 1321.34 573.208 1321.34 575.922V644.807C1321.34 647.526 1319.14 649.729 1316.42 649.729ZM1316.42 739.703H1146.31C1143.59 739.703 1141.39 737.505 1141.39 734.786V665.901C1141.39 663.182 1143.59 660.979 1146.31 660.979H1316.42C1319.14 660.979 1321.34 663.182 1321.34 665.901V734.786C1321.34 737.505 1319.14 739.703 1316.42 739.703ZM1321.34 837.177H1141.39V756.104C1141.39 753.26 1143.7 750.953 1146.54 750.953H1316.19C1319.04 750.953 1321.34 753.26 1321.34 756.104V837.177Z"
        fill="#CACACA" />
    <path
        d="M794.758 0H300.956C281.023 0 262.341 9.71354 250.893 26.0365L15.0859 362.219C0.304687 383.297 0.304687 411.37 15.0859 432.448L250.893 768.63C262.341 784.953 281.023 794.667 300.956 794.667H794.758C814.69 794.667 833.372 784.953 844.82 768.63L1080.63 432.448C1095.41 411.37 1095.41 383.297 1080.63 362.219L844.82 26.0365C833.372 9.71354 814.69 0 794.758 0ZM794.758 20C808.159 20 820.753 26.5469 828.445 37.5208L1064.25 373.703C1074.17 387.839 1074.17 406.828 1064.25 420.964L828.445 757.146C820.753 768.12 808.159 774.667 794.758 774.667H300.956C287.56 774.667 274.966 768.12 267.268 757.146L31.4609 420.964C21.5495 406.828 21.5495 387.839 31.4609 373.703L267.268 37.5208C274.966 26.5469 287.56 20 300.956 20H794.758Z"
        fill="#662D91" />
</svg>